# xmcd
#
# Track frame offsets:
#	150
#	10342
#	23677
#	32353
#	46048
#	58027
#	70351
#	90492
#	101533
#	113026
#	126666
#	140777
#	154075
#
# Disc length: 2279 seconds
#
# Revision: 0
# Processed by: cddbd v1.5.2PL0 Copyright (c) Steve Scherf et al.
# Submitted via: EasyCDDAExtractor 16.0.8.2
#
DISCID=a808e50d
DTITLE=Blanket - Blanket 91
DYEAR=1991
DGENRE=Bluegrass
TTITLE0=Durham's Reel
TTITLE1=Rekni hvezdam
TTITLE2=Prvni pujdu dal
TTITLE3=Proud pereji
TTITLE4=Zem modravejch plani
TTITLE5=Mou zpravu dejte lidem
TTITLE6=Sweet Georgia Brown
TTITLE7=Hadka s andelem
TTITLE8=Otevri dvere dokoran
TTITLE9=Vyplouvam
TTITLE10=Jsem tulak jen
TTITLE11=Kentucky Waltz
TTITLE12=Bleeker Street Rag
EXTD=
EXTT0=
EXTT1=
EXTT2=
EXTT3=
EXTT4=
EXTT5=
EXTT6=
EXTT7=
EXTT8=
EXTT9=
EXTT10=
EXTT11=
EXTT12=
PLAYORDER=
